<svg xmlns="http://www.w3.org/2000/svg" width="20.646" height="19.5" viewBox="0 0 20.646 19.5">
    <defs>
        <style>
            .cls-1{fill:#fff}
        </style>
    </defs>
    <g id="noun_excel_1194546" transform="translate(-.001)">
        <path id="Path_41" d="M30.151 39.166V22.41H28.8c-3.475.628-6.94 1.209-10.428 1.811V40.07c3.431.606 6.906 1.212 10.359 1.839h1.413v-2.743zm-5.11-3.478a26.73 26.73 0 0 1-1.141-2.844c-.314.92-.747 1.786-1.1 2.687-.5 0-.992-.028-1.488-.047.581-1.139 1.143-2.288 1.742-3.418-.509-1.168-1.07-2.31-1.595-3.469l1.5-.085c.336.885.706 1.761.986 2.668.314-.964.744-1.883 1.127-2.8q.769-.053 1.541-.094-.9 1.858-1.824 3.726a709.988 709.988 0 0 1 1.883 3.8c-.542-.048-1.085-.083-1.632-.124z" class="cls-1" data-name="Path 41" transform="translate(-18.37 -22.41)"/>
        <path id="Path_42" d="M57.72 29.33v1.2h2.4v1.774h-2.4v.973h2.4v1.774h-2.4v.973h2.4V37.8h-2.4v.973h2.4v1.758h-2.4v1.03h2.4v1.717h-2.4v1.2h8.293V29.33zm6.463 13.956h-3.49v-1.717h3.491zm0-2.747h-3.49v-1.773h3.491zm0-2.747h-3.49v-1.77h3.491zm0-2.747h-3.49v-1.77h3.491zm0-2.747h-3.49v-1.766h3.491z" class="cls-1" data-name="Path 42" transform="translate(-45.368 -27.158)"/>
    </g>
</svg>
