<svg xmlns="http://www.w3.org/2000/svg" width="89.098" height="22" viewBox="0 0 89.098 22">
    <defs>
        <style>
            .cls-1{fill:none;stroke:#5f5f5f;stroke-linecap:round;stroke-linejoin:round;stroke-width:2px}.cls-2{fill:#5f5f5f}
        </style>
    </defs>
    <g id="empty-list" transform="translate(-279 -519)">
        <g id="noun_Arrow_2310534" transform="translate(464 387.257)">
            <g id="trash" transform="rotate(180 -49.82 74.871)">
                <g id="trash-2" transform="rotate(180 43.68 9.5)">
                    <path id="Path_34" d="M3 6h18" class="cls-1" data-name="Path 34"/>
                    <path id="Path_35" d="M19 6v14a2 2 0 0 1-2 2H7a2 2 0 0 1-2-2V6m3 0V4a2 2 0 0 1 2-2h4a2 2 0 0 1 2 2v2" class="cls-1" data-name="Path 35"/>
                    <path id="Line_356" d="M0 0v6" class="cls-1" data-name="Line 356" transform="translate(10 11)"/>
                    <path id="Line_357" d="M0 0v6" class="cls-1" data-name="Line 357" transform="translate(14 11)"/>
                </g>
            </g>
            <path id="Path_50" d="M1.957 0a.948.948 0 0 1-.5-.123.978.978 0 0 1-.325-.319 1.363 1.363 0 0 1-.177-.443A2.343 2.343 0 0 1 .9-1.377v-5.584a4.339 4.339 0 0 1 .041-.618 1.14 1.14 0 0 1 .182-.489.931.931 0 0 1 .41-.322 1.856 1.856 0 0 1 .727-.117h3.763a.83.83 0 0 1 .319.062.869.869 0 0 1 .261.164.754.754 0 0 1 .176.243.709.709 0 0 1 .064.3.689.689 0 0 1-.064.3.764.764 0 0 1-.179.238.825.825 0 0 1-.261.161.867.867 0 0 1-.319.059H3.006v1.9H5.76a.867.867 0 0 1 .319.059.8.8 0 0 1 .261.164.8.8 0 0 1 .176.243.689.689 0 0 1 .064.3.689.689 0 0 1-.064.3.764.764 0 0 1-.176.24.825.825 0 0 1-.261.161.867.867 0 0 1-.319.059H3.006v2.051H6.17a.748.748 0 0 1 .3.059.763.763 0 0 1 .243.164.763.763 0 0 1 .164.243.748.748 0 0 1 .059.3.748.748 0 0 1-.059.3.73.73 0 0 1-.164.24.788.788 0 0 1-.243.161.748.748 0 0 1-.3.036zm6.205-4.74a1.522 1.522 0 0 1 .2-.855.777.777 0 0 1 .694-.3.876.876 0 0 1 .747.3 1.4 1.4 0 0 1 .226.855 1.865 1.865 0 0 1 .319-.513 2.087 2.087 0 0 1 .463-.4 2.278 2.278 0 0 1 .565-.255 2.2 2.2 0 0 1 .633-.091 2.316 2.316 0 0 1 .6.079 1.805 1.805 0 0 1 .551.252 1.826 1.826 0 0 1 .448.437 1.979 1.979 0 0 1 .3.633 2.58 2.58 0 0 1 .428-.662 2.2 2.2 0 0 1 .533-.434 2.156 2.156 0 0 1 .6-.234 2.87 2.87 0 0 1 .63-.07 1.944 1.944 0 0 1 .718.135 1.676 1.676 0 0 1 .6.407 1.988 1.988 0 0 1 .416.686 2.733 2.733 0 0 1 .155.964v2.648a1.4 1.4 0 0 1-.226.855.876.876 0 0 1-.747.3.777.777 0 0 1-.694-.3 1.522 1.522 0 0 1-.2-.855v-2.563a1.469 1.469 0 0 0-.07-.472 1.022 1.022 0 0 0-.2-.352.824.824 0 0 0-.3-.217.908.908 0 0 0-.363-.073 1.369 1.369 0 0 0-.457.076 1.011 1.011 0 0 0-.378.234 1.142 1.142 0 0 0-.258.4 1.619 1.619 0 0 0-.1.592v2.373a1.4 1.4 0 0 1-.226.855.876.876 0 0 1-.747.3.777.777 0 0 1-.694-.3 1.522 1.522 0 0 1-.2-.855v-2.449a1.437 1.437 0 0 0-.249-.914.821.821 0 0 0-.677-.311 1.314 1.314 0 0 0-.469.082 1.048 1.048 0 0 0-.375.24 1.117 1.117 0 0 0-.249.393 1.485 1.485 0 0 0-.091.539v2.426a1.4 1.4 0 0 1-.212.854.876.876 0 0 1-.747.3.777.777 0 0 1-.694-.3 1.522 1.522 0 0 1-.2-.855zM21.24-2.965a4.114 4.114 0 0 0 .062.732 1.8 1.8 0 0 0 .211.595 1.106 1.106 0 0 0 .4.4 1.2 1.2 0 0 0 .618.146 1.065 1.065 0 0 0 .571-.144 1.061 1.061 0 0 0 .372-.4 1.94 1.94 0 0 0 .2-.6 4.286 4.286 0 0 0 .062-.75 4.781 4.781 0 0 0-.047-.659 2.128 2.128 0 0 0-.176-.612 1.2 1.2 0 0 0-.357-.451.953.953 0 0 0-.6-.176 1.489 1.489 0 0 0-.624.117.955.955 0 0 0-.41.357 1.625 1.625 0 0 0-.22.6 4.828 4.828 0 0 0-.062.845zm-.006-1.775a1.989 1.989 0 0 1 .375-.545 2.306 2.306 0 0 1 .5-.393 2.351 2.351 0 0 1 .577-.237 2.361 2.361 0 0 1 .6-.079 1.973 1.973 0 0 1 .973.24A2.318 2.318 0 0 1 25-5.1a3.047 3.047 0 0 1 .472.973 4.24 4.24 0 0 1 .164 1.2 4.035 4.035 0 0 1-.173 1.213 2.908 2.908 0 0 1-.486.946 2.258 2.258 0 0 1-.75.618 2.1 2.1 0 0 1-.97.223 2.26 2.26 0 0 1-1.172-.3 2.49 2.49 0 0 1-.855-.855V1.02a1.4 1.4 0 0 1-.226.855.876.876 0 0 1-.747.3.777.777 0 0 1-.694-.3 1.522 1.522 0 0 1-.2-.855v-5.76a1.522 1.522 0 0 1 .2-.855.777.777 0 0 1 .694-.3.876.876 0 0 1 .747.3 1.4 1.4 0 0 1 .23.855zm6.076-1.178l.129-1.213a2.455 2.455 0 0 1 .062-.352 1.037 1.037 0 0 1 .141-.322.729.729 0 0 1 .261-.237.88.88 0 0 1 .428-.091.615.615 0 0 1 .56.27 1.5 1.5 0 0 1 .173.8v1.143h.656a.757.757 0 0 1 .486.149.567.567 0 0 1 .188.472.525.525 0 0 1-.2.448.879.879 0 0 1-.539.149h-.592v2.215q0 .352.012.6a1.211 1.211 0 0 0 .076.4.422.422 0 0 0 .193.223.813.813 0 0 0 .369.067q.17 0 .331.015a.832.832 0 0 1 .284.073.467.467 0 0 1 .2.173.577.577 0 0 1 .073.313.543.543 0 0 1-.111.357.707.707 0 0 1-.319.208 2.076 2.076 0 0 1-.5.1q-.29.026-.647.026a2.366 2.366 0 0 1-.747-.123 1.447 1.447 0 0 1-.58-.372 1.7 1.7 0 0 1-.375-.662 3.276 3.276 0 0 1-.132-1V-4.7h-.27a.89.89 0 0 1-.527-.149.551.551 0 0 1-.211-.483.563.563 0 0 1 .167-.425.7.7 0 0 1 .507-.161zM33.2-.076l-1.91-4.459q-.064-.146-.12-.3a.877.877 0 0 1-.056-.3.736.736 0 0 1 .064-.311.722.722 0 0 1 .176-.24.819.819 0 0 1 .258-.155.883.883 0 0 1 .316-.056.64.64 0 0 1 .334.091 1.08 1.08 0 0 1 .278.243 1.81 1.81 0 0 1 .223.346q.1.193.173.393l1.125 3.059 1.16-3.076a1.724 1.724 0 0 1 .258-.492 1.748 1.748 0 0 1 .34-.34.432.432 0 0 1 .19-.167.6.6 0 0 1 .243-.05.657.657 0 0 1 .287.064.774.774 0 0 1 .237.176.854.854 0 0 1 .161.252A.754.754 0 0 1 37-5.1a.955.955 0 0 1-.07.337q-.07.185-.135.349l-2.35 5.965a3.988 3.988 0 0 1-.167.369 1.646 1.646 0 0 1-.205.311.985.985 0 0 1-.255.217.616.616 0 0 1-.316.082 1 1 0 0 1-.343-.059.809.809 0 0 1-.542-.779 1.179 1.179 0 0 1 .082-.372q.076-.2.141-.384zm13.827-1.483a.758.758 0 0 1 .3.062.786.786 0 0 1 .249.167.786.786 0 0 1 .167.249.758.758 0 0 1 .062.3.758.758 0 0 1-.062.3.786.786 0 0 1-.167.249.786.786 0 0 1-.249.167.758.758 0 0 1-.3.062h-4.013a.946.946 0 0 1-.527-.138 1.021 1.021 0 0 1-.338-.359 1.606 1.606 0 0 1-.176-.513 3.422 3.422 0 0 1-.05-.586v-5.772a1.174 1.174 0 0 1 .085-.448 1.166 1.166 0 0 1 .231-.363 1.065 1.065 0 0 1 .343-.243 1.027 1.027 0 0 1 .425-.088 1.027 1.027 0 0 1 .425.088 1.1 1.1 0 0 1 .346.243 1.14 1.14 0 0 1 .234.363 1.174 1.174 0 0 1 .085.448l.003 5.812zm3.662-6.421a.663.663 0 0 1-.088.343.8.8 0 0 1-.229.249 1.014 1.014 0 0 1-.325.149 1.444 1.444 0 0 1-.378.05 1.412 1.412 0 0 1-.39-.053 1.024 1.024 0 0 1-.325-.155.774.774 0 0 1-.223-.249.672.672 0 0 1-.082-.334.639.639 0 0 1 .079-.313.812.812 0 0 1 .214-.249 1 1 0 0 1 .322-.164 1.369 1.369 0 0 1 .41-.059 1.369 1.369 0 0 1 .378.053 1.062 1.062 0 0 1 .325.152.776.776 0 0 1 .226.246.653.653 0 0 1 .086.334zM50.6-1.154a1.4 1.4 0 0 1-.226.855.876.876 0 0 1-.747.3.777.777 0 0 1-.694-.3 1.522 1.522 0 0 1-.2-.855V-4.74a1.522 1.522 0 0 1 .2-.855.777.777 0 0 1 .694-.3.876.876 0 0 1 .747.3 1.4 1.4 0 0 1 .226.855zm2.865-3.17a.4.4 0 0 0 .2.354 1.817 1.817 0 0 0 .551.208q.334.076.686.146t.686.161a5.019 5.019 0 0 1 .627.214 2.038 2.038 0 0 1 .516.308 1.348 1.348 0 0 1 .352.445 1.4 1.4 0 0 1 .129.624 1.709 1.709 0 0 1-.187.812 1.729 1.729 0 0 1-.53.6 2.612 2.612 0 0 1-.817.381 3.983 3.983 0 0 1-1.051.141A7.91 7.91 0 0 1 53.578 0a4.329 4.329 0 0 1-.894-.208 1.906 1.906 0 0 1-.624-.349.635.635 0 0 1-.234-.489.473.473 0 0 1 .158-.381.6.6 0 0 1 .4-.135.866.866 0 0 1 .223.035q.129.035.281.088l.325.114q.173.062.36.108a4.238 4.238 0 0 0 .483.1 3.387 3.387 0 0 0 .513.038A1.61 1.61 0 0 0 54.9-1.1a1.039 1.039 0 0 0 .284-.1.644.644 0 0 0 .208-.173.5.5 0 0 0 .1-.258.537.537 0 0 0 .029-.07.26.26 0 0 0 .012-.082.38.38 0 0 0-.149-.293 1.09 1.09 0 0 0-.419-.205q-.451-.105-.861-.193t-.759-.187a4.577 4.577 0 0 1-.633-.229 1.711 1.711 0 0 1-.48-.316 1.3 1.3 0 0 1-.3-.451 1.679 1.679 0 0 1-.108-.639A1.42 1.42 0 0 1 52-5.024a1.545 1.545 0 0 1 .53-.536 2.731 2.731 0 0 1 .838-.331 4.94 4.94 0 0 1 1.113-.114 4.225 4.225 0 0 1 1.7.267q.583.267.583.694a.44.44 0 0 1-.158.366.592.592 0 0 1-.381.126.737.737 0 0 1-.243-.044q-.126-.044-.3-.1a3.421 3.421 0 0 0-.419-.1 3.453 3.453 0 0 0-.6-.044 4.643 4.643 0 0 0-.489.023 1.529 1.529 0 0 0-.375.082.574.574 0 0 0-.24.158.375.375 0 0 0-.092.253zm5.344-1.594l.129-1.213A2.455 2.455 0 0 1 59-7.482a1.037 1.037 0 0 1 .141-.322.729.729 0 0 1 .261-.237.88.88 0 0 1 .428-.091.615.615 0 0 1 .56.27 1.5 1.5 0 0 1 .173.8v1.143h.656a.757.757 0 0 1 .486.149.567.567 0 0 1 .188.472.525.525 0 0 1-.2.448.879.879 0 0 1-.539.149h-.592v2.215q0 .352.012.6a1.211 1.211 0 0 0 .076.4.422.422 0 0 0 .193.223.813.813 0 0 0 .369.067q.17 0 .331.015a.832.832 0 0 1 .284.073.467.467 0 0 1 .2.173.577.577 0 0 1 .073.313.543.543 0 0 1-.111.357.707.707 0 0 1-.319.208 2.076 2.076 0 0 1-.5.1q-.29.026-.647.026a2.366 2.366 0 0 1-.747-.123 1.447 1.447 0 0 1-.58-.372 1.7 1.7 0 0 1-.375-.662 3.276 3.276 0 0 1-.132-1V-4.7h-.27a.89.89 0 0 1-.527-.149.551.551 0 0 1-.211-.483.563.563 0 0 1 .167-.425.7.7 0 0 1 .507-.161z" class="cls-2" data-name="Path 50" transform="translate(-158 146.743)"/>
        </g>
    </g>
</svg>
