<svg xmlns="http://www.w3.org/2000/svg" width="84.365" height="14.595" viewBox="0 0 84.365 14.595">
    <defs>
        <style>
            .cls-1{fill:#5f5f5f}
        </style>
    </defs>
    <g id="move-all" transform="translate(-279.996 -522.405)">
        <g id="noun_Arrow_2310534" transform="translate(464 387.257)">
            <g id="arrow" transform="rotate(180 -49.82 74.871)">
                <path id="Path_33" d="M0 7.3L8.919 0v4.054h9.464v6.486H8.919v4.054z" class="cls-1" data-name="Path 33"/>
            </g>
            <path id="Path_51" d="M9.328-6.463q-.521 1.289-.932 2.3-.176.434-.34.844t-.3.732l-.214.521-.076.193q-.123.3-.261.568a2.33 2.33 0 0 1-.305.47 1.436 1.436 0 0 1-.4.322 1.04 1.04 0 0 1-.507.12 1.106 1.106 0 0 1-.463-.091 1.124 1.124 0 0 1-.366-.275 2.248 2.248 0 0 1-.313-.463 6.726 6.726 0 0 1-.293-.647l-1.845-4.57V-.85a.843.843 0 0 1-.067.334.83.83 0 0 1-.185.272.889.889 0 0 1-.275.182.843.843 0 0 1-.334.067.843.843 0 0 1-.334-.067.854.854 0 0 1-.272-.182.854.854 0 0 1-.182-.272A.843.843 0 0 1 1-.85v-5.408a7.476 7.476 0 0 1 .053-.929 1.983 1.983 0 0 1 .21-.713 1.134 1.134 0 0 1 .451-.454 1.571 1.571 0 0 1 .765-.161 1.411 1.411 0 0 1 .595.117 1.385 1.385 0 0 1 .475.378 3.442 3.442 0 0 1 .428.677q.208.416.454 1.008l1.563 3.78h.047l1.582-3.779q.211-.5.413-.908a3.733 3.733 0 0 1 .431-.686 1.769 1.769 0 0 1 .5-.434 1.228 1.228 0 0 1 .615-.152 1.753 1.753 0 0 1 .653.111 1.026 1.026 0 0 1 .457.357 1.715 1.715 0 0 1 .267.636 4.336 4.336 0 0 1 .088.94v5.62a.843.843 0 0 1-.067.334.83.83 0 0 1-.185.272.889.889 0 0 1-.275.182.843.843 0 0 1-.334.067.843.843 0 0 1-.336-.067.854.854 0 0 1-.272-.182.854.854 0 0 1-.178-.272.843.843 0 0 1-.072-.334zm3.123 3.51a3.4 3.4 0 0 1 .2-1.175 2.687 2.687 0 0 1 .609-.97 2.936 2.936 0 0 1 1.02-.662 3.844 3.844 0 0 1 1.438-.246 3.973 3.973 0 0 1 1.4.229 2.9 2.9 0 0 1 1.025.636 2.7 2.7 0 0 1 .633.967A3.354 3.354 0 0 1 19-2.953a3.29 3.29 0 0 1-.205 1.163 2.684 2.684 0 0 1-.615.961 2.95 2.95 0 0 1-1.025.656 3.873 3.873 0 0 1-1.43.243 3.988 3.988 0 0 1-1.415-.231A2.9 2.9 0 0 1 13.28-.8a2.632 2.632 0 0 1-.621-.961 3.363 3.363 0 0 1-.208-1.192zm1.951 0a3.714 3.714 0 0 0 .07.735 1.962 1.962 0 0 0 .226.612 1.2 1.2 0 0 0 .407.419 1.151 1.151 0 0 0 .615.155 1.166 1.166 0 0 0 .583-.141 1.159 1.159 0 0 0 .41-.393 1.922 1.922 0 0 0 .243-.606 3.472 3.472 0 0 0 .082-.782 3.57 3.57 0 0 0-.073-.735 2 2 0 0 0-.231-.615 1.223 1.223 0 0 0-.407-.422 1.124 1.124 0 0 0-.606-.155 1.157 1.157 0 0 0-.609.152 1.2 1.2 0 0 0-.41.416 1.917 1.917 0 0 0-.229.615 3.789 3.789 0 0 0-.073.745zm9.68 1.653a3.143 3.143 0 0 1-.275.6 1.606 1.606 0 0 1-.34.4 1.192 1.192 0 0 1-.422.226 1.833 1.833 0 0 1-.527.07 1.487 1.487 0 0 1-.6-.111 1.315 1.315 0 0 1-.454-.34 2.56 2.56 0 0 1-.372-.577q-.17-.349-.346-.823L19.8-4.383q-.064-.164-.141-.354a.947.947 0 0 1-.076-.349.827.827 0 0 1 .064-.331.742.742 0 0 1 .179-.255.826.826 0 0 1 .267-.164.906.906 0 0 1 .328-.059.68.68 0 0 1 .39.126 1.42 1.42 0 0 1 .331.319 2.4 2.4 0 0 1 .255.422 2.5 2.5 0 0 1 .161.428l.961 2.982 1.025-3.2a2.949 2.949 0 0 1 .155-.419 1.525 1.525 0 0 1 .214-.343.973.973 0 0 1 .278-.231.726.726 0 0 1 .354-.085 1.031 1.031 0 0 1 .328.053.826.826 0 0 1 .278.155.775.775 0 0 1 .193.252.783.783 0 0 1 .073.349 1.026 1.026 0 0 1-.07.346l-.129.357q-.281.779-.565 1.544zm8.033-1.84a.416.416 0 0 1-.158.357.725.725 0 0 1-.439.117h-3.627a1.614 1.614 0 0 0 .407 1.1 1.537 1.537 0 0 0 1.151.39 3.255 3.255 0 0 0 .472-.032 3.91 3.91 0 0 0 .431-.088q.211-.056.422-.126l.439-.146a.382.382 0 0 1 .135-.029.375.375 0 0 1 .311.149.549.549 0 0 1 .117.349.609.609 0 0 1-.041.223 1.046 1.046 0 0 1-.387.466 2.281 2.281 0 0 1-.621.293 3.893 3.893 0 0 1-.744.149 7.227 7.227 0 0 1-.75.041 3.969 3.969 0 0 1-1.257-.193 2.848 2.848 0 0 1-1.011-.58 2.63 2.63 0 0 1-.671-.955 3.388 3.388 0 0 1-.243-1.33 2.991 2.991 0 0 1 .234-1.184 2.878 2.878 0 0 1 .653-.955 3.092 3.092 0 0 1 1-.639 3.341 3.341 0 0 1 1.262-.231 3.3 3.3 0 0 1 1.295.231 2.563 2.563 0 0 1 .9.621 2.527 2.527 0 0 1 .533.908 3.493 3.493 0 0 1 .187 1.093zm-1.564-.36a2.125 2.125 0 0 0-.108-.574 1.376 1.376 0 0 0-.258-.457 1.156 1.156 0 0 0-.41-.3 1.378 1.378 0 0 0-.565-.108 1.207 1.207 0 0 0-.53.114 1.282 1.282 0 0 0-.41.311 1.443 1.443 0 0 0-.27.457 1.926 1.926 0 0 0-.114.56zm9.814-3.41l-1.289 3.769h2.6l-1.281-3.767zm3.82 5.133l.088.22q.047.115.088.231.041.117.067.226a.838.838 0 0 1 .026.2.887.887 0 0 1-.079.384.828.828 0 0 1-.214.281.965.965 0 0 1-.313.176 1.153 1.153 0 0 1-.377.059 1.073 1.073 0 0 1-.393-.064.784.784 0 0 1-.293-.205 1.5 1.5 0 0 1-.237-.366q-.108-.226-.231-.554l-.281-.744h-3.317l-.24.744a4.477 4.477 0 0 1-.214.563 1.383 1.383 0 0 1-.24.366.784.784 0 0 1-.3.2 1.17 1.17 0 0 1-.4.062 1.153 1.153 0 0 1-.378-.062.965.965 0 0 1-.313-.176.828.828 0 0 1-.214-.281.887.887 0 0 1-.08-.383.838.838 0 0 1 .026-.2q.026-.108.067-.226t.088-.231q.047-.114.088-.22l1.576-4.26q.223-.6.425-1.058a3.744 3.744 0 0 1 .445-.776 1.653 1.653 0 0 1 .56-.478 1.676 1.676 0 0 1 .768-.161 1.852 1.852 0 0 1 .721.126 1.418 1.418 0 0 1 .539.416 3.447 3.447 0 0 1 .457.768q.217.475.48 1.166zm3.211.621a1.4 1.4 0 0 1-.226.855.876.876 0 0 1-.747.3.777.777 0 0 1-.694-.3 1.522 1.522 0 0 1-.2-.855v-6.192a1.522 1.522 0 0 1 .2-.855.777.777 0 0 1 .694-.3.876.876 0 0 1 .747.3 1.4 1.4 0 0 1 .226.855zm3.246 0a1.4 1.4 0 0 1-.226.855.876.876 0 0 1-.747.3.777.777 0 0 1-.694-.3 1.522 1.522 0 0 1-.2-.855v-6.192a1.522 1.522 0 0 1 .2-.855.777.777 0 0 1 .694-.3.876.876 0 0 1 .747.3 1.4 1.4 0 0 1 .226.855z" class="cls-1" data-name="Path 51" transform="translate(-185 146.743)"/>
        </g>
    </g>
</svg>
