<svg xmlns="http://www.w3.org/2000/svg" id="shift-scheduler" width="35" height="35" viewBox="0 0 35 35">
    <defs>
        <style>
            .cls-1{fill:none}.cls-2{fill:#f7f7f7}
        </style>
    </defs>
    <path id="Rectangle_1680" d="M0 0h35v35H0z" class="cls-1" data-name="Rectangle 1680"/>
    <g id="noun_work_time_863298_000000" data-name="noun_work time_863298_000000" transform="translate(5 3)">
        <path id="Path_968" d="M26.193 12.847A22.752 22.752 0 0 0 28 12.075a13.888 13.888 0 0 0-.9-3.4c-.647.047-1.314.132-1.959.235a12.294 12.294 0 0 0-1.164-2.01q.614-.757 1.179-1.577a13.592 13.592 0 0 0-2.479-2.479q-.818.564-1.574 1.176a12.134 12.134 0 0 0-2.009-1.161c.1-.645.19-1.31.235-1.955a13.991 13.991 0 0 0-3.4-.9c-.285.6-.542 1.188-.774 1.81a12.219 12.219 0 0 0-2.312 0 22.098 22.098 0 0 0-.774-1.809 14.026 14.026 0 0 0-3.4.9c.047.648.132 1.315.236 1.961A12.267 12.267 0 0 0 6.9 4.027q-.757-.614-1.578-1.179a13.6 13.6 0 0 0-2.48 2.479q.563.818 1.178 1.573a12.192 12.192 0 0 0-1.161 2.01c-.645-.1-1.311-.188-1.956-.235a13.913 13.913 0 0 0-.9 3.4c.6.286 1.188.542 1.81.773a12.2 12.2 0 0 0 0 2.312c-.621.232-1.208.487-1.807.773a13.937 13.937 0 0 0 .9 3.4 22.147 22.147 0 0 0 1.96-.237A12.318 12.318 0 0 0 4.022 21.1q-.614.756-1.18 1.577a13.668 13.668 0 0 0 2.48 2.479q.819-.556 1.578-1.175a12.117 12.117 0 0 0 2.009 1.161c-.1.644-.189 1.31-.236 1.957a14 14 0 0 0 3.4.9c.286-.6.542-1.189.775-1.81a12.173 12.173 0 0 0 2.312 0c.232.62.488 1.208.773 1.807a13.992 13.992 0 0 0 3.4-.9 22.12 22.12 0 0 0-.236-1.961 12.289 12.289 0 0 0 2.008-1.16c.5.41 1.031.8 1.577 1.18a13.664 13.664 0 0 0 2.479-2.479q-.562-.819-1.176-1.574a12.176 12.176 0 0 0 1.156-2.002c.644.106 1.309.19 1.954.236a13.936 13.936 0 0 0 .9-3.4 22.47 22.47 0 0 0-1.81-.774 12.219 12.219 0 0 0 .008-2.315zM14 22.9a8.892 8.892 0 1 1 8.893-8.9A8.892 8.892 0 0 1 14 22.9zm5.96-7.217h-7.376V7a1.063 1.063 0 0 1 2.126 0v6.548h5.25a1.063 1.063 0 1 1 0 2.126z" class="cls-2" data-name="Path 968" transform="translate(0 -.005)"/>
    </g>
</svg>
