<svg xmlns="http://www.w3.org/2000/svg" id="home" width="35" height="35" viewBox="0 0 35 35">
    <defs>
        <style>
            .cls-1{fill:none}.cls-2{fill:#f7f7f7}
        </style>
    </defs>
    <path id="Rectangle_1680" d="M0 0h35v35H0z" class="cls-1" data-name="Rectangle 1680"/>
    <path id="home-2" d="M16.019 0q9.873 8.567 15.366 13.176a1.528 1.528 0 0 1 .615 1.23 1.582 1.582 0 0 1-.461 1.133 1.488 1.488 0 0 1-1.114.48H27.2V27.2a1.582 1.582 0 0 1-.461 1.133 1.488 1.488 0 0 1-1.114.48h-4.8a1.64 1.64 0 0 1-1.617-1.613v-6.379h-6.416V27.2a1.582 1.582 0 0 1-.461 1.133 1.488 1.488 0 0 1-1.114.48h-4.8A1.64 1.64 0 0 1 4.8 27.2V16.019H1.613a1.55 1.55 0 0 1-1.133-.48A1.55 1.55 0 0 1 0 14.406a1.725 1.725 0 0 1 .576-1.229zM32 25.93" class="cls-2" data-name="home" transform="translate(1 3)"/>
</svg>
